<?xml version="1.0" encoding="UTF-8" standalone="no"?>
<svg
   xmlns:dc="http://purl.org/dc/elements/1.1/"
   xmlns:cc="http://creativecommons.org/ns#"
   xmlns:rdf="http://www.w3.org/1999/02/22-rdf-syntax-ns#"
   xmlns:svg="http://www.w3.org/2000/svg"
   xmlns="http://www.w3.org/2000/svg"
   xmlns:sodipodi="http://sodipodi.sourceforge.net/DTD/sodipodi-0.dtd"
   xmlns:inkscape="http://www.inkscape.org/namespaces/inkscape"
   viewBox="0 0 50 50"
   version="1.1"
   id="svg5"
   sodipodi:docname="symantec.svg"
   inkscape:version="0.92.3 (2405546, 2018-03-11)">
  <defs
     id="defs9" />
  <sodipodi:namedview
     pagecolor="#ffffff"
     bordercolor="#666666"
     borderopacity="1"
     objecttolerance="10"
     gridtolerance="10"
     guidetolerance="10"
     inkscape:pageopacity="0"
     inkscape:pageshadow="2"
     inkscape:window-width="754"
     inkscape:window-height="480"
     id="namedview7"
     showgrid="false"
     inkscape:zoom="4.72"
     inkscape:cx="25"
     inkscape:cy="25"
     inkscape:window-x="518"
     inkscape:window-y="113"
     inkscape:window-maximized="0"
     inkscape:current-layer="svg5" />
  <path
     d="M46 2v2h2V2zm0 2h-4v2h4zm-8 2v4h2V6zm2 4v2h2v-2zm2 0h2V8h-2zm-2 2h-2v2h-2v2h-2v-2h2v-2h-2v1.598C30.602 10.699 26.3 9 21.5 9 10.7 9 2 17.7 2 28.5S10.7 48 21.5 48 41 39.3 41 28.5c0-3.8-1.102-7.3-3-10.3V16h2zm-4 0h2v-2h-2zm-14.5-1c3.898 0 7.602 1.3 10.5 3.5V16h-2v.8C27.602 15 24.7 14 21.5 14 13.5 14 7 20.5 7 28.5S13.5 43 21.5 43 36 36.5 36 28.5c0-2.7-.7-5.2-2-7.3V20h-2v-2h2v2h2.8c1.4 2.5 2.2 5.398 2.2 8.5C39 38.102 31.102 46 21.5 46S4 38.102 4 28.5 11.898 11 21.5 11zm0 5c2.8 0 5.398.898 7.5 2.5v.5h-2s-4.102 8-5 10c0 0-5-7-8-7 0 0-1-.102-1 1s1 2 1 2 4.102 3.5 6 10c.2.7.8 2 2.5 2 1 0 1.898-.8 2.5-2 1-2 2.102-6.2 5-10v-1h2v-2h.2c1.198 1.898 1.8 4.102 1.8 6.5C34 35.398 28.398 41 21.5 41S9 35.398 9 28.5 14.602 16 21.5 16z"
     id="surface1"
     style="fill:#ffffff" />
  <metadata
     id="metadata3">
    <rdf:RDF>
      <rdf:Description
         about="https://iconscout.com/legal#licenses"
         dc:title="symantec"
         dc:description="symantec"
         dc:publisher="Iconscout"
         dc:date="2017-12-09"
         dc:format="image/svg+xml"
         dc:language="en">
        <dc:creator>
          <rdf:Bag>
            <rdf:li>Icons8</rdf:li>
          </rdf:Bag>
        </dc:creator>
      </rdf:Description>
      <cc:Work
         rdf:about="">
        <dc:format>image/svg+xml</dc:format>
        <dc:type
           rdf:resource="http://purl.org/dc/dcmitype/StillImage" />
      </cc:Work>
    </rdf:RDF>
  </metadata>
</svg>
